# xmcd
#
# Track frame offsets: 
#        150
#        15502
#        28957
#        43600
#        56622
#        71112
#        85957
#        99007
#        114555
#        128235
#        141312
#        154305
#        169120
#        182065
#        194647
#        208247
#        223682
#        237812
#        250757
#        262550
#        278217
#        292887
#        304935
#
# Disc length: 4231 seconds
#
# Revision: 1
# Processed by: cddbd v1.5.2PL0 Copyright (c) Steve Scherf et al.
# Submitted via: ExactAudioCopy v0.95a5
#
DISCID=53108517
DTITLE=Memphis Minnie and Kansas Joe - In Chronological Order, Volume 2 
DTITLE=(1930-1931)
DYEAR=1991
DGENRE=Blues
TTITLE0=Memphis Minnie-Jitis Blues (take A)
TTITLE1=Good Girl Blues
TTITLE2=My Mary Blues
TTITLE3=Plymouth Rock Blues
TTITLE4=Cherry Ball Blues
TTITLE5=Botherin' That Thing
TTITLE6=Bumble Bee, No. 2
TTITLE7=Georgia Skin Blues
TTITLE8=New Dirty Dozen
TTITLE9=New Bumble Bee
TTITLE10=Frankie Jean (That Trottin' Fool)
TTITLE11=I'm Talking 'bout You, No. 2
TTITLE12=She Put Me Outdoors
TTITLE13=Pile Drivin' Blues
TTITLE14=I Called You This Morning
TTITLE15=Grandpa and Grandma Blues
TTITLE16=Garage Fire Blues
TTITLE17=What's the Matter with the Mill?
TTITLE18=North Memphis Blues
TTITLE19=Beat It Right
TTITLE20=Preachers Blues
TTITLE21=Shake Mattie
TTITLE22=My Wash Woman's Gone
EXTD=
EXTT0=
EXTT1=
EXTT2=
EXTT3=
EXTT4=
EXTT5=
EXTT6=
EXTT7=
EXTT8=
EXTT9=
EXTT10=
EXTT11=
EXTT12=
EXTT13=
EXTT14=
EXTT15=
EXTT16=
EXTT17=
EXTT18=
EXTT19=
EXTT20=
EXTT21=
EXTT22=
PLAYORDER=
